<?xml version="1.0" standalone="no"?>
<!DOCTYPE svg PUBLIC "-//W3C//DTD SVG 20010904//EN"
 "http://www.w3.org/TR/2001/REC-SVG-20010904/DTD/svg10.dtd">
<svg version="1.0" xmlns="http://www.w3.org/2000/svg"
 width="272.000000pt" height="167.000000pt" viewBox="0 0 272.000000 167.000000"
 preserveAspectRatio="xMidYMid meet">

<g transform="translate(0.000000,167.000000) scale(0.100000,-0.100000)"
fill="#000000" stroke="none">
<path d="M672 1003 c-16 -39 -106 -255 -187 -450 l-14 -33 123 0 122 0 15 48
15 47 49 0 c49 0 49 0 66 -45 l17 -45 146 -3 c134 -2 146 -1 146 15 1 17 1 17
14 0 12 -16 42 -17 377 -17 l363 0 42 48 42 47 42 -47 42 -48 134 0 c74 0 134
2 134 5 0 4 -45 62 -100 130 -55 68 -100 127 -100 130 0 4 48 65 106 136 l105
129 -139 0 -140 0 -39 -46 -39 -47 -38 47 -38 46 -293 0 -293 0 -33 -80 c-19
-44 -37 -80 -40 -80 -3 0 -21 36 -40 80 l-34 80 -127 0 -127 0 -3 -52 c-3 -51
-4 -52 -16 -25 -6 15 -16 38 -22 52 -9 24 -12 25 -114 25 l-104 0 -20 -47z
m262 -196 l71 -169 3 171 2 171 79 0 79 0 20 -47 c96 -219 90 -209 100 -182 6
13 30 69 56 124 l45 100 81 3 80 3 0 -196 0 -196 -56 3 -56 3 1 130 c1 75 -2
126 -7 120 -5 -5 -30 -65 -57 -133 l-49 -123 -49 3 -49 3 -56 133 -57 134 -3
-136 -3 -137 -96 3 -96 3 -16 43 -15 42 -91 0 -91 0 -14 -42 c-15 -43 -16 -43
-67 -46 -29 -2 -53 -1 -53 1 0 4 85 211 145 350 l16 38 66 -3 65 -3 72 -168z
m1029 113 l49 -60 51 60 52 60 59 0 c55 0 58 -1 44 -17 -64 -77 -138 -171
-138 -177 0 -4 33 -48 74 -99 l75 -92 -57 -3 -56 -3 -53 60 -54 61 -52 -60
-52 -59 -147 -1 -148 0 0 195 0 195 153 0 152 0 48 -60z"/>
<path d="M768 834 l-25 -59 29 -3 c15 -2 39 -2 51 0 l23 3 -26 59 -27 58 -25
-58z"/>
<path d="M1710 860 l0 -40 65 0 65 0 0 -35 0 -35 -65 0 -65 0 0 -40 0 -40 68
0 68 0 47 54 c26 30 47 58 47 62 0 4 -19 31 -41 61 l-41 53 -74 0 -74 0 0 -40z"/>
</g>
</svg>
