<?xml version="1.0" standalone="no"?>
<!DOCTYPE svg PUBLIC "-//W3C//DTD SVG 20010904//EN"
 "http://www.w3.org/TR/2001/REC-SVG-20010904/DTD/svg10.dtd">
<svg version="1.0" xmlns="http://www.w3.org/2000/svg"
 width="560.000000pt" height="306.000000pt" viewBox="0 0 560.000000 306.000000"
 preserveAspectRatio="xMidYMid meet">

<g transform="translate(0.000000,306.000000) scale(0.100000,-0.100000)"
fill="#000000" stroke="none">
<path d="M1004 2154 c16 -16 26 -38 26 -55 0 -17 -113 -247 -290 -591 -160
-310 -293 -573 -296 -584 -4 -15 1 -27 17 -38 20 -14 57 -16 244 -16 l220 1
-27 20 c-39 29 -36 63 14 164 l42 85 43 0 c47 0 43 -7 68 115 9 44 19 88 21
98 4 14 -1 17 -26 17 l-32 0 52 96 c55 101 51 89 176 687 l6 27 -143 0 -142 0
27 -26z"/>
<path d="M1337 2158 c-3 -13 -31 -151 -63 -308 -56 -282 -56 -286 -45 -371 15
-113 15 -109 -17 -109 -28 0 -28 -1 -49 -107 -11 -60 -19 -111 -16 -115 2 -5
22 -8 44 -8 l39 0 0 -115 c0 -167 -23 -155 310 -155 149 0 270 2 270 5 0 2
-13 11 -30 20 -16 8 -34 23 -39 34 -6 10 -31 283 -56 607 -40 501 -49 593 -64
614 -18 24 -22 25 -148 28 -129 3 -131 2 -136 -20z"/>
<path d="M3290 2163 c-112 -39 -199 -133 -246 -267 -8 -22 -47 -180 -86 -351
-57 -252 -71 -327 -72 -400 -1 -141 40 -207 155 -252 37 -14 93 -17 355 -21
436 -5 424 -10 473 196 17 72 31 134 31 136 0 3 -16 -6 -36 -19 -36 -24 -42
-25 -216 -25 l-180 0 -29 29 c-18 18 -29 40 -29 57 0 42 119 545 138 583 34
68 54 75 235 81 102 3 170 10 184 17 12 7 28 34 37 60 15 46 46 170 46 186 0
4 -161 7 -357 7 -299 -1 -365 -4 -403 -17z"/>
<path d="M2688 1885 c-15 -8 -43 -42 -64 -75 -31 -51 -41 -60 -66 -60 -23 0
-28 4 -24 18 17 63 17 81 -3 101 -20 20 -32 21 -252 21 l-231 0 26 -31 c14
-17 26 -39 26 -49 0 -11 -45 -213 -100 -450 -55 -237 -100 -441 -100 -454 0
-13 7 -27 16 -30 9 -3 126 -6 261 -6 l245 0 -26 31 c-15 17 -26 43 -26 59 0
45 127 579 142 597 24 30 76 43 164 43 91 0 146 17 164 51 10 19 60 215 60
237 0 18 -177 16 -212 -3z"/>
<path d="M4324 1863 c-3 -16 -12 -53 -20 -84 -31 -124 -33 -123 183 -129 l178
-5 10 -29 c8 -23 -4 -94 -59 -369 l-69 -340 22 -19 c21 -16 44 -18 255 -18
l231 1 -27 20 c-21 15 -28 29 -28 54 0 18 36 188 80 378 48 205 80 366 80 398
0 71 -25 117 -80 146 -43 23 -48 23 -396 23 l-354 0 -6 -27z"/>
<path d="M4205 1496 c-104 -48 -172 -164 -202 -345 -28 -171 11 -260 122 -277
77 -11 246 0 283 20 41 21 98 108 107 164 6 40 5 42 -18 42 -13 0 -32 9 -42
20 -17 19 -18 26 -5 88 17 90 42 137 79 150 24 8 32 19 41 54 6 24 15 58 20
76 l8 32 -171 0 c-159 0 -176 -2 -222 -24z"/>
</g>
</svg>
