<svg width="76" height="76" viewBox="0 0 76 76" fill="none" xmlns="http://www.w3.org/2000/svg">
<path d="M19 15.2V3.8C19 2.79218 19.4004 1.82563 20.113 1.11299C20.8256 0.400356 21.7922 0 22.8 0H53.2C54.2078 0 55.1744 0.400356 55.887 1.11299C56.5996 1.82563 57 2.79218 57 3.8V15.2H72.2C73.2078 15.2 74.1744 15.6004 74.887 16.313C75.5996 17.0256 76 17.9922 76 19V72.2C76 73.2078 75.5996 74.1744 74.887 74.887C74.1744 75.5996 73.2078 76 72.2 76H3.8C2.79218 76 1.82563 75.5996 1.11299 74.887C0.400356 74.1744 0 73.2078 0 72.2V19C0 17.9922 0.400356 17.0256 1.11299 16.313C1.82563 15.6004 2.79218 15.2 3.8 15.2H19ZM7.6 57V68.4H68.4V57H7.6ZM7.6 49.4H68.4V22.8H7.6V49.4ZM26.6 7.6V15.2H49.4V7.6H26.6ZM34.2 38H41.8V45.6H34.2V38Z" fill="white"/>
</svg>
