<svg width="76" height="76" viewBox="0 0 76 76" fill="none" xmlns="http://www.w3.org/2000/svg">
<path d="M38 76C17.0126 76 0 58.9874 0 38C0 17.0126 17.0126 0 38 0C58.9874 0 76 17.0126 76 38C76 58.9874 58.9874 76 38 76ZM38 68.4C46.0626 68.4 53.7949 65.1972 59.496 59.496C65.1972 53.7949 68.4 46.0626 68.4 38C68.4 29.9374 65.1972 22.2051 59.496 16.504C53.7949 10.8028 46.0626 7.6 38 7.6C29.9374 7.6 22.2051 10.8028 16.504 16.504C10.8028 22.2051 7.6 29.9374 7.6 38C7.6 46.0626 10.8028 53.7949 16.504 59.496C22.2051 65.1972 29.9374 68.4 38 68.4ZM41.8 38H57V45.6H34.2V19H41.8V38Z" fill="white"/>
</svg>
