<svg width="40" height="40" viewBox="0 0 40 40" fill="none" xmlns="http://www.w3.org/2000/svg">
<path fill-rule="evenodd" clip-rule="evenodd" d="M0 20C0 9.01099 9.01099 0 20 0C30.989 0 40 9.01099 40 20C40 30.989 30.989 40 20 40C9.01099 40 0 30.989 0 20ZM3.2967 20C3.2967 29.2308 10.7692 36.7033 20 36.7033C29.2308 36.7033 36.7033 29.2308 36.7033 20C36.7033 10.7692 29.2308 3.2967 20 3.2967C10.7692 3.2967 3.2967 10.7692 3.2967 20ZM10.5494 17.3626L17.3626 24.1758L29.2307 12.0879L31.6483 14.5055L17.3626 28.7912L8.13184 19.7802L10.5494 17.3626Z" fill="#006BE6"/>
</svg>
