<svg width="56" height="56" viewBox="0 0 56 56" fill="none" xmlns="http://www.w3.org/2000/svg">
<path d="M52.7706 28.1173L45.6606 9.81564C45.6606 9.81564 45.6606 9.58101 45.4312 9.58101C45.4312 9.58101 45.4312 9.58101 45.4312 9.34637C45.2018 9.34637 44.9725 9.34637 44.9725 9.11173C44.7431 9.11173 44.7431 8.8771 44.5138 8.8771H44.2844H44.055H43.8257C43.8257 8.8771 43.8257 8.8771 43.5963 8.8771L29.8349 11.9274V7H26.1651V12.8659L11.4862 16.1508C11.2569 16.1508 11.0275 16.3855 10.7982 16.3855C10.5688 16.3855 10.5688 16.6201 10.3395 16.8547C10.3395 16.8547 10.3395 16.8547 10.3395 17.0894C10.3395 17.0894 10.3395 17.0894 10.3395 17.324L3.22936 35.6257C3 35.6257 3 35.8603 3 36.095C3 41.4916 8.50459 43.3687 11.945 43.3687C15.3853 43.3687 20.8899 41.4916 20.8899 36.095C20.8899 35.8603 20.8899 35.6257 20.6606 35.3911L14.2385 19.2011L25.9358 16.6201V45.2458H22.4954V49H33.2752V45.2458H29.6055V15.6816L40.844 13.1006L35.1101 28.1173C35.1101 28.352 35.1101 28.5866 35.1101 28.8212C35.1101 34.2179 40.6147 36.095 44.055 36.095C47.4954 36.095 53 34.2179 53 28.8212C52.7706 28.5866 52.7706 28.352 52.7706 28.1173ZM15.6147 38.9106C14.4679 39.6145 12.8624 39.8492 11.945 39.8492C11.0275 39.8492 9.42202 39.6145 8.27523 38.9106C6.89908 38.2067 6.66973 37.0335 6.66973 36.5642L11.945 22.9553L17.2202 36.5642C17.2202 37.0335 16.9908 37.9721 15.6147 38.9106ZM47.4954 31.4022C46.3486 32.1061 44.7431 32.3408 43.8257 32.3408C42.9083 32.3408 41.3028 32.1061 40.156 31.4022C38.7798 30.6983 38.5505 29.5251 38.5505 29.0559L43.8257 15.4469L49.1009 29.0559C49.3303 29.7598 48.8716 30.6983 47.4954 31.4022Z" fill="#006BE6"/>
</svg>
