<svg width="56" height="56" viewBox="0 0 56 56" fill="none" xmlns="http://www.w3.org/2000/svg">
<path fill-rule="evenodd" clip-rule="evenodd" d="M28 8C17.011 8 8 17.011 8 28C8 38.989 17.011 48 28 48C38.989 48 48 38.989 48 28C48 17.011 38.989 8 28 8ZM28 44.7033C18.7692 44.7033 11.2967 37.2308 11.2967 28C11.2967 18.7692 18.7692 11.2967 28 11.2967C37.2308 11.2967 44.7033 18.7692 44.7033 28C44.7033 37.2308 37.2308 44.7033 28 44.7033ZM29.7417 25.3627H26.2417V37.3627H29.7417V25.3627ZM26.2417 18.5494H29.7417V22.0494H26.2417V18.5494Z" fill="#006BE6"/>
</svg>
