<svg width="56" height="56" viewBox="0 0 56 56" fill="none" xmlns="http://www.w3.org/2000/svg">
<path d="M28.0251 13.7241L31.9884 21.7931L32.6142 23.2414L34.2829 23.4483L43.2523 24.6897L36.786 30.8966L35.5344 32.1379L35.743 33.7931L37.2032 42.6897L29.2767 38.5517L27.8166 37.7241L26.3564 38.5517L18.4299 42.6897L19.8901 33.7931L20.0987 32.1379L18.8471 30.8966L12.3808 24.6897L21.5588 23.4483L23.2275 23.2414L23.8533 21.7931L28.0251 13.7241ZM28.0251 10C26.9822 10 26.1478 10.4138 25.5221 11.4483L21.1416 20.3448L11.3378 21.7931C9.04332 22 8.20896 24.6897 9.87769 26.3448L16.9698 33.1724L15.3011 42.8966C15.0925 44.5517 16.344 46 18.0128 46C18.4299 46 18.8471 46 19.2643 45.7931L28.0251 41.0345L36.786 45.5862C37.2032 45.7931 37.6204 45.7931 38.0375 45.7931C39.4977 45.7931 40.9578 44.3448 40.7492 42.6897L39.0805 32.9655L46.1726 26.1379C47.8413 24.6897 46.7984 22 44.7125 21.5862L34.9087 20.3448L30.5282 11.4483C29.9025 10.4138 28.8595 10 28.0251 10Z" fill="#006BE6"/>
</svg>
