<svg width="56" height="56" viewBox="0 0 56 56" fill="none" xmlns="http://www.w3.org/2000/svg">
<path fill-rule="evenodd" clip-rule="evenodd" d="M27.0882 10H39.6706C41.6765 10 43.3176 11.62 43.5 13.6V42.4C43.5 44.38 41.8588 46 39.8529 46H27.0882H16.1471C14.1412 46 12.5 44.38 12.5 42.4V13.6C12.5 11.62 14.1412 10 16.1471 10H27.0882ZM27.0882 42.4H39.6706H39.8529V13.6H27.0882H16.1471V42.4H27.0882ZM20.3412 17.74H35.6588V21.34H20.3412V17.74ZM35.6588 34.66H20.3412V38.26H35.6588V34.66ZM20.3412 26.2H35.6588V29.8H20.3412V26.2Z" fill="#006BE6"/>
</svg>
