<svg width="56" height="56" viewBox="0 0 56 56" fill="none" xmlns="http://www.w3.org/2000/svg">
<path fill-rule="evenodd" clip-rule="evenodd" d="M28 8C17.011 8 8 17.011 8 28C8 38.989 17.011 48 28 48C38.989 48 48 38.989 48 28C48 17.011 38.989 8 28 8ZM28 44.7033C18.7692 44.7033 11.2967 37.2308 11.2967 28C11.2967 18.7692 18.7692 11.2967 28 11.2967C37.2308 11.2967 44.7033 18.7692 44.7033 28C44.7033 37.2308 37.2308 44.7033 28 44.7033ZM28 15.9121C21.4066 15.9121 15.9121 21.4066 15.9121 28C15.9121 34.5934 21.4066 40.0879 28 40.0879C34.5934 40.0879 40.0879 34.5934 40.0879 28C40.0879 21.4066 34.5934 15.9121 28 15.9121ZM28 36.7912C23.1649 36.7912 19.2088 32.8351 19.2088 28C19.2088 23.1648 23.1649 19.2088 28 19.2088C32.8352 19.2088 36.7912 23.1648 36.7912 28C36.7912 32.8351 32.8352 36.7912 28 36.7912ZM25.1426 28.0001C25.1426 26.4616 26.4613 25.1429 27.9997 25.1429C29.5382 25.1429 30.8569 26.4616 30.8569 28.0001C30.8569 29.5385 29.5382 30.8572 27.9997 30.8572C26.4613 30.8572 25.1426 29.5385 25.1426 28.0001Z" fill="#006BE6"/>
</svg>
