<svg width="56" height="56" viewBox="0 0 56 56" fill="none" xmlns="http://www.w3.org/2000/svg">
<path d="M23.25 48L23 46.5276L22 42.1104C20.75 41.865 19.25 40.8834 18 39.9018L13.75 41.3742L12.25 41.865L11.5 40.638L8.5 35.4847L8 34.0123L9 33.0307L12.5 30.0859C12.5 29.3497 12.25 28.8589 12.25 28.1227C12.25 27.3865 12.25 26.6503 12.5 26.1595V25.6687L9 22.7239L8 21.7423L8.75 20.5153L11.75 15.362L12.5 14.135L14 14.6258L18.5 16.0982C19.5 15.1166 21 14.3804 22.25 13.8896L23 9.47239L23.25 8H32.25L32.5 9.47239L33.5 13.8896C34.75 14.135 36.25 15.1166 37.5 16.0982L41.75 14.6258L43.25 14.135L44 15.362L47 20.5153L47.75 21.7423L46.75 22.7239L43.25 25.6687L43.5 25.9141C43.5 26.6503 43.75 27.1411 43.75 27.8773C43.75 28.6135 43.75 29.3497 43.5 29.8405V30.3313L47 33.0307L48 34.0123L47.25 35.2393L44.25 40.3926L43.5 41.6196L42 41.1288L37.25 39.9018C36.25 40.8834 34.75 41.6196 33.5 42.1104L32.75 46.5276L32.5 48H23.25ZM29.5 44.319L30.25 40.638L30.5 39.9018L31.5 39.411C33.25 38.9202 34.75 37.9386 36 36.7117L36.75 35.9755L37.75 36.2209L41.5 37.4479L43.25 34.7485L40.25 32.2945L39.5 31.5583L39.75 30.5767C40 29.8405 40 28.8589 40 27.8773C40 26.8957 40 26.1595 39.75 25.1779L39.5 24.1963L40.25 23.4601L43.25 21.0061L41.5 18.3067L37.75 19.5337L36.75 19.7791L36 19.0429C34.75 17.816 33.25 17.0798 31.5 16.3436H30.5L30.25 15.362L29.5 11.4356H26.25L25.5 15.362L25.25 16.0982L24.25 16.589C22.5 17.0798 21 18.0613 19.75 19.2883L19 20.0245L18 19.5337L14.25 18.3067L12.5 21.0061L15.5 23.4601L16.25 24.1963L16 25.4233C15.75 26.1595 15.75 27.1411 15.75 27.8773C15.75 28.8589 15.75 29.5951 16 30.5767L16.25 31.5583L15.5 32.2945L12.5 34.7485L14.25 37.4479L18 36.2209L19 35.9755L19.75 36.7117C21 37.9386 22.75 38.6748 24.25 39.411L25 39.6564L25.5 40.638L26.25 44.319H29.5ZM28 35.7301C23.5 35.7301 20 32.2945 20 27.8773C20 23.4601 23.5 20.0245 28 20.0245C32.5 20.0245 36 23.4601 36 27.8773C35.75 32.2945 32.25 35.7301 28 35.7301ZM28 23.7055C25.5 23.7055 23.5 25.6687 23.5 28.1227C23.5 30.5767 25.5 32.2945 28 32.2945C30.5 32.2945 32.5 30.3313 32.5 27.8773C32.5 25.4233 30.25 23.7055 28 23.7055Z" fill="#006BE6"/>
</svg>
