<svg width="1600" height="108" viewBox="0 0 1600 108" fill="none" xmlns="http://www.w3.org/2000/svg">
<path opacity="0.21" d="M955.601 108C940.816 108 929.276 102.505 918.458 90.8159C909.083 80.8252 901.871 67.2377 894.659 54.05C880.956 29.2729 865.45 1.2988 838.044 1.2988C809.195 1.2988 795.132 3.69658 780.347 6.29417C765.562 8.89177 750.417 11.4894 720.126 11.4894C692.36 11.4894 678.296 19.5819 663.511 28.2738C648.727 36.8659 633.581 45.7576 602.569 45.7576C569.754 45.7576 553.527 59.6448 541.988 69.7354C538.021 73.1323 534.776 76.1295 531.17 78.2276C514.943 87.8187 496.552 92.914 475.276 93.913C446.428 95.3118 428.398 90.5162 410.728 85.9204C402.434 83.7225 393.78 81.4246 384.043 80.0259C368.537 77.6281 349.425 79.7262 332.116 81.6244L331.395 81.7243C225.017 93.2137 105.296 90.5162 0 88.0185L0.360604 86.7197C105.296 89.1175 224.296 91.9149 329.592 80.5254L330.313 80.4255C348.343 78.4274 368.898 76.2294 386.207 78.9269C396.304 80.5254 404.958 82.8233 413.613 85.0213C431.282 89.617 447.87 93.913 474.194 92.7142C494.027 91.7151 510.976 86.8196 526.842 77.728C530.448 75.7299 533.694 72.7327 537.661 69.3358C549.561 58.8455 566.148 44.4588 602.569 44.4588C630.336 44.4588 644.399 36.3663 659.184 27.6744C673.969 19.0823 689.114 10.1906 720.126 10.1906C748.974 10.1906 763.038 7.79278 777.823 5.19519C792.608 2.59759 807.753 0 838.044 0C852.828 0 864.368 5.49491 875.186 17.1841C884.562 27.1748 891.774 40.7623 898.986 53.95C912.689 78.7271 928.195 106.701 955.601 106.701C984.81 106.701 999.955 106.302 1014.38 105.902C1028.8 105.502 1043.95 105.103 1073.52 105.103C1100.92 105.103 1115.71 84.5217 1130.13 64.6401C1145.28 43.2599 1160.06 23.1785 1191.44 23.1785C1221.73 23.1785 1237.23 27.2747 1252.02 31.271C1266.8 35.2673 1280.87 38.9639 1309.35 38.9639C1339.28 38.9639 1353.71 29.3728 1365.61 21.6799C1368.13 20.0814 1370.3 18.5828 1372.46 17.284C1372.82 16.9843 1373.54 16.6846 1373.9 16.3848C1381.47 11.9889 1390.13 6.99352 1405.27 4.39593C1425.47 0.999075 1443.5 3.9963 1460.81 6.79371C1465.13 7.49306 1469.46 8.19241 1473.43 8.79186C1497.95 12.2886 1525.35 11.9889 1554.56 11.6892C1569.35 11.4894 1584.85 11.3895 1600 11.7891L1599.64 13.0879C1585.22 12.6883 1569.71 12.8881 1554.92 12.988C1526.44 13.2877 1497.23 13.5874 1471.62 9.99075C1467.3 9.3913 1462.97 8.69195 1458.64 7.9926C1441.69 5.19519 1425.47 2.59759 1407.8 5.49491C1393.73 7.89269 1385.44 12.6883 1378.23 16.8844C1377.87 17.1841 1377.15 17.4838 1376.79 17.7835C1374.62 19.0823 1372.46 20.481 1369.93 22.0796C1358.4 29.6725 1342.53 40.1628 1309.35 40.1628C1279.06 40.1628 1263.56 36.0666 1248.77 32.0703C1233.99 28.074 1219.92 24.3774 1191.44 24.3774C1164.03 24.3774 1149.24 44.9584 1134.82 64.84C1119.68 86.2202 1104.89 106.302 1073.52 106.302C1044.31 106.302 1029.16 106.701 1014.74 107.101C1000.32 107.6 985.17 108 955.601 108Z" fill="white"/>
</svg>
