<svg width="1600" height="62" viewBox="0 0 1600 62" fill="none" xmlns="http://www.w3.org/2000/svg">
<path d="M425.011 62C402.661 62 392.372 50.3813 381.02 37.9612C370.732 26.4426 360.089 14.5234 339.867 14.5234C319.645 14.5234 309.357 20.9338 298.714 27.6446C288.071 34.3554 277.073 41.1664 255.078 41.1664C234.146 41.1664 223.858 42.3683 213.215 43.5703C202.572 44.7722 191.574 46.0743 170.288 46.0743C149.002 46.0743 138.359 46.0743 127.716 45.9742C117.428 45.9742 106.43 45.874 85.1441 45.874C63.8581 45.874 52.8603 45.1729 42.2173 44.4717C31.929 43.7706 20.9313 43.0695 0 43.0695V42.2682C21.286 42.2682 32.2838 42.9693 42.9268 43.6704C53.2151 44.3716 64.2129 45.0727 85.1441 45.0727C106.43 45.0727 117.073 45.0727 127.716 45.1729C138.004 45.1729 149.002 45.273 170.288 45.273C191.22 45.273 201.508 44.0711 212.151 42.8691C222.794 41.6672 233.792 40.3651 255.078 40.3651C275.299 40.3651 285.588 33.9548 296.231 27.2439C306.874 20.5331 317.871 13.7221 339.867 13.7221C362.217 13.7221 372.506 25.3409 383.858 37.7609C394.146 49.2795 404.789 61.1987 425.011 61.1987C445.588 61.1987 455.521 55.6898 466.164 49.7803C476.807 43.9709 487.805 37.9612 509.8 37.9612C530.732 37.9612 541.02 36.8595 551.663 35.6575C562.306 34.5557 573.304 33.3538 594.59 33.3538C615.876 33.3538 626.874 33.8546 637.517 34.3554C647.805 34.8562 658.803 35.357 679.734 35.357C699.956 35.357 710.244 28.9467 720.887 22.1357C731.53 15.4249 742.528 8.41357 764.523 8.41357C786.874 8.41357 797.162 21.0339 808.514 34.3554C818.803 46.7754 829.446 59.6963 849.667 59.6963C869.889 59.6963 880.532 44.6721 890.82 30.1486C901.818 14.6236 912.461 0 934.812 0C957.162 0 968.16 8.41357 978.803 16.6268C989.091 24.5396 999.734 32.7528 1019.96 32.7528C1040.89 32.7528 1050.82 30.5493 1061.82 28.2456C1072.46 25.9418 1083.46 23.6381 1105.1 23.6381C1126.74 23.6381 1138.09 26.643 1148.74 29.5477C1159.38 32.4523 1169.67 35.1567 1190.24 35.1567C1211.88 35.1567 1222.88 37.7609 1233.53 40.2649C1244.17 42.769 1254.46 45.1729 1275.03 45.1729C1295.96 45.1729 1306.25 43.7706 1316.9 42.2682C1327.54 40.7658 1338.54 39.2633 1360.18 39.2633C1379.33 39.2633 1392.82 42.4685 1405.94 45.4733C1415.88 47.7771 1426.16 50.1809 1438.58 51.2827C1490.73 55.79 1555.65 54.4879 1599.65 53.1858L1600 53.9871C1555.65 55.2892 1490.38 56.5913 1437.87 52.084C1424.75 50.9822 1414.46 48.5784 1404.17 46.1745C1390.69 43.0695 1378.27 40.0646 1360.18 40.0646C1339.25 40.0646 1328.96 41.4669 1318.31 42.9693C1307.67 44.4717 1296.67 45.9742 1275.03 45.9742C1253.39 45.9742 1242.39 43.37 1231.75 40.8659C1221.11 38.3619 1210.82 35.958 1190.24 35.958C1168.6 35.958 1157.25 32.9532 1146.61 30.0485C1135.96 27.1438 1125.68 24.4394 1105.1 24.4394C1084.17 24.4394 1074.24 26.643 1063.24 28.8465C1052.59 31.1502 1041.6 33.454 1019.96 33.454C997.605 33.454 986.608 25.0404 975.965 16.8271C965.676 8.91438 955.033 0.70113 934.812 0.70113C914.59 0.70113 903.947 15.7254 893.659 30.2488C882.661 45.7738 872.018 60.3974 849.667 60.3974C827.317 60.3974 817.029 47.7771 805.676 34.4556C795.388 22.0355 784.745 9.1147 764.523 9.1147C744.302 9.1147 734.013 15.525 723.37 22.336C712.727 29.0468 701.729 36.0582 679.734 36.0582C658.448 36.0582 647.45 35.5574 636.807 35.0565C626.519 34.5557 615.521 34.0549 594.59 34.0549C573.659 34.0549 563.37 35.1567 552.727 36.3586C542.084 37.4604 531.086 38.6624 509.8 38.6624C489.224 38.6624 479.29 44.1712 468.647 50.0808C458.004 55.9903 447.007 62 425.011 62Z" fill="#006BE6"/>
</svg>
