<svg width="97" height="24" viewBox="0 0 97 24" fill="none" xmlns="http://www.w3.org/2000/svg">
<path d="M87.4146 23.5443H91.2779V13.519C92.0763 11.8734 93.4156 10.962 95.0897 10.962C95.6564 10.962 96.4033 11.0633 96.8926 11.2658V7.97468C96.5063 7.79746 95.8882 7.72151 95.27 7.72151C93.5186 7.72151 92.0763 8.65822 91.2779 10.2025V7.99999H87.4146V23.5443Z" fill="#006BE6"/>
<path d="M64.0026 19.2405C63.5133 20.3038 62.5861 20.9367 61.3755 20.9367C59.6757 20.9367 58.6454 19.7722 58.6454 17.3671V14.6076C58.6454 12.2025 59.6499 11.038 61.3755 11.038C62.6118 11.038 63.5133 11.6709 64.0026 12.7342V19.2405ZM54.7821 17.7215C54.7821 22.0253 57.3319 24 60.2681 24C62.0194 24 63.333 23.2911 64.0026 22.2025V23.5443H67.866V0H64.0026V9.31646C63.333 8.22785 62.0194 7.51899 60.2681 7.51899C57.3319 7.51899 54.7821 9.46835 54.7821 13.7975V17.7215Z" fill="#006BE6"/>
<path d="M42.4451 13.0633C42.8315 11.8228 43.8874 11.038 45.304 11.038C46.8751 11.038 47.8023 11.8988 47.8023 14.4811V23.5444H51.6656V13.8482C51.6656 9.74689 49.734 7.49373 46.3085 7.49373C44.4283 7.49373 43.0633 8.35449 42.4451 9.4431V7.94942H38.5818V23.5444H42.4451V13.0633Z" fill="#006BE6"/>
<path d="M26.1422 13.3417C26.1422 10.0506 31.4993 10.0253 31.4993 13.3417V13.8481H26.1422V13.3417ZM28.7692 20.9113C27.2239 20.9113 26.3482 20.0253 26.1679 17.7974C26.1164 17.2911 26.1422 17.4177 26.1422 16.9113H35.3627V13.9746C35.3627 9.94932 32.9159 7.51894 28.8207 7.51894C24.7256 7.51894 22.2788 9.94932 22.2788 13.9746V17.5443C22.2788 21.5696 24.5968 24 28.7692 24C32.5295 24 34.8218 22 35.2081 18.5316L31.2933 18.2784C31.0872 20.1265 30.2115 20.9113 28.7692 20.9113Z" fill="#006BE6"/>
<path d="M7.93274 3.79745H13.3672V23.5443H17.5911V3.79745H23.0255V0.455673H7.93274V3.79745Z" fill="#006BE6"/>
<path d="M74.9488 13.3417C74.9488 10.0506 80.3059 10.0253 80.3059 13.3417V13.8481H74.9488V13.3417ZM77.6016 20.9113C76.0563 20.9113 75.1806 20.0253 75.0003 17.7974C74.9488 17.2911 74.9745 17.4177 74.9745 16.9113H84.195V13.9746C84.195 9.94932 81.7483 7.51894 77.6531 7.51894C73.558 7.51894 71.1112 9.94932 71.1112 13.9746V17.5443C71.1112 21.5696 73.4292 24 77.6016 24C81.3619 24 83.6542 22 84.0405 18.5316L80.1257 18.2784C79.9196 20.1265 79.0439 20.9113 77.6016 20.9113Z" fill="#006BE6"/>
<path fill-rule="evenodd" clip-rule="evenodd" d="M4.22392 9.82278V23.5443H0V9.82278L2.11196 7.74683L4.22392 9.82278Z" fill="#006BE6"/>
<path fill-rule="evenodd" clip-rule="evenodd" d="M0 2.53162L2.11196 0.455673L4.22392 2.53162V6.17719L2.11196 4.10124L0 6.17719V2.53162Z" fill="#006BE6"/>
</svg>
