<svg width="36" height="46" viewBox="0 0 36 46" fill="none" xmlns="http://www.w3.org/2000/svg">
<path fill-rule="evenodd" clip-rule="evenodd" d="M0.5 41.7153C0.5 43.9028 2.44444 45.8473 4.63194 45.8473H31.3681C33.5556 45.8473 35.5 43.9028 35.5 41.7153V22.2709C35.5 20.0834 33.5556 18.1389 31.3681 18.1389H29.6667V11.8195C29.6667 5.257 24.3194 0.152832 18 0.152832C11.6806 0.152832 6.33333 5.257 6.33333 11.8195V18.1389H4.63194C2.44444 18.1389 0.5 20.0834 0.5 22.2709V41.7153ZM31.8542 42.4445L3.90278 42.2014H3.65972V21.7848H6.09028H29.6667H32.0972L31.8542 42.4445ZM9.73611 11.8195C9.73611 7.20144 13.3819 3.55561 18 3.55561C22.6181 3.55561 26.2639 7.20144 26.0208 11.8195V18.1389H9.73611V11.8195ZM14.8484 31.9935C14.8484 33.6949 16.3068 35.1532 18.0082 35.1532C19.7095 35.1532 21.1679 33.6949 21.1679 31.9935C21.1679 30.2921 19.7095 28.8337 18.0082 28.8337C16.3068 28.8337 14.8484 30.2921 14.8484 31.9935Z" fill="#006BE6"/>
</svg>
