<svg width="77" height="76" viewBox="0 0 77 76" fill="none" xmlns="http://www.w3.org/2000/svg">
<path d="M74.1656 6.88066H62.5133V2.65844C62.5133 1.25103 61.2536 0 59.8364 0H17.0061C15.589 0 14.3292 1.25103 14.3292 2.65844V6.88066H2.67689C1.25971 6.88066 0 8.13169 0 9.53909V27.3663C0 34.716 5.98364 40.6584 13.3845 40.6584H17.9509C18.1084 40.6584 18.2658 40.6584 18.4233 40.5021C22.3599 46.1317 28.501 50.0412 35.7444 50.823V60.0494H31.3354C23.9346 60.0494 17.9509 65.9918 17.9509 73.3416C17.9509 74.749 19.2106 76 20.6278 76H56.3722C57.7894 76 59.0491 74.749 59.0491 73.3416C59.0491 65.9918 53.0654 60.0494 45.6646 60.0494H41.2556V50.823C48.499 50.0412 54.6401 46.1317 58.5767 40.5021C58.7341 40.5021 58.8916 40.6584 59.0491 40.6584H63.6155C71.0164 40.6584 77 34.716 77 27.3663V9.53909C76.8425 7.97531 75.7403 6.88066 74.1656 6.88066ZM53.2229 70.8395H23.6196C24.7219 67.7119 27.7137 65.5226 31.1779 65.5226H45.5072C49.1288 65.5226 52.1207 67.7119 53.2229 70.8395ZM13.3845 35.3416C8.97546 35.3416 5.35378 31.7449 5.35378 27.3663V12.1975H14.3292V27.0535C14.3292 30.0247 14.8016 32.6831 15.9039 35.3416H13.3845ZM38.4213 45.6626C28.0286 45.6626 19.683 37.2181 19.683 27.0535V5.31687H57.317V27.0535C57.1595 37.3745 48.8139 45.6626 38.4213 45.6626ZM71.4888 27.3663C71.4888 31.7449 67.8671 35.3416 63.4581 35.3416H61.0961C62.0409 32.8395 62.6708 30.0247 62.6708 27.0535V12.1975H71.4888V27.3663Z" fill="white"/>
</svg>
