<svg width="14" height="14" viewBox="0 0 14 14" fill="none" xmlns="http://www.w3.org/2000/svg">
<path d="M13.9304 12.7778L10.5971 9.44444C12.3749 7.11111 12.1527 3.88889 10.0416 1.77778C8.93045 0.555556 7.486 0 5.93045 0C4.37489 0 2.93045 0.555556 1.81934 1.77778C-0.513997 4.11111 -0.513997 7.77778 1.81934 10.1111C2.93045 11.2222 4.486 11.8889 5.93045 11.8889C7.15267 11.8889 8.37489 11.4444 9.486 10.6667L12.8193 14L13.9304 12.7778ZM2.93045 8.88889C2.15267 8.11111 1.70822 7 1.70822 5.88889C1.70822 4.77778 2.15267 3.66667 2.93045 2.88889C3.70822 2.11111 4.81934 1.66667 5.93045 1.66667C7.04156 1.66667 8.15267 2.11111 8.93045 2.88889C10.5971 4.55556 10.5971 7.22222 8.93045 8.88889C8.15267 9.66667 7.04156 10.1111 5.93045 10.1111C4.81934 10.1111 3.70822 9.66667 2.93045 8.88889Z" fill="#595E6B"/>
</svg>
