<svg width="58" height="76" viewBox="0 0 58 76" fill="none" xmlns="http://www.w3.org/2000/svg">
<path d="M0 76C0 68.3214 3.05535 60.9572 8.4939 55.5276C13.9325 50.0979 21.3087 47.0476 29 47.0476C36.6913 47.0476 44.0675 50.0979 49.5061 55.5276C54.9447 60.9572 58 68.3214 58 76H50.75C50.75 70.241 48.4585 64.7179 44.3796 60.6457C40.3007 56.5735 34.7685 54.2857 29 54.2857C23.2315 54.2857 17.6993 56.5735 13.6204 60.6457C9.54151 64.7179 7.25 70.241 7.25 76H0ZM29 43.4286C16.9831 43.4286 7.25 33.7114 7.25 21.7143C7.25 9.71714 16.9831 0 29 0C41.0169 0 50.75 9.71714 50.75 21.7143C50.75 33.7114 41.0169 43.4286 29 43.4286ZM29 36.1905C37.0112 36.1905 43.5 29.7124 43.5 21.7143C43.5 13.7162 37.0112 7.2381 29 7.2381C20.9888 7.2381 14.5 13.7162 14.5 21.7143C14.5 29.7124 20.9888 36.1905 29 36.1905Z" fill="white"/>
</svg>
