<svg width="117" height="76" viewBox="0 0 117 76" fill="none" xmlns="http://www.w3.org/2000/svg">
<path d="M58.0666 0C48.3216 0 40.394 7.92728 40.394 17.6725C40.394 27.4178 48.3213 35.3451 58.0666 35.3451C67.8118 35.3451 75.7391 27.4175 75.7391 17.6725C75.7391 7.92751 67.8118 0 58.0666 0ZM58.0666 30.2956C51.1088 30.2956 45.4435 24.6303 45.4435 17.6725C45.4435 10.7147 51.1088 5.04943 58.0666 5.04943C65.0244 5.04943 70.6897 10.7147 70.6897 17.6725C70.6897 24.6303 65.0246 30.2956 58.0666 30.2956Z" fill="white"/>
<path d="M93.4117 20.1973C86.4539 20.1973 80.7886 25.8625 80.7886 32.8204C80.7886 39.7782 86.4539 45.4435 93.4117 45.4435C100.369 45.4435 106.035 39.7782 106.035 32.8204C106.035 25.8625 100.369 20.1973 93.4117 20.1973ZM93.4117 40.3943C89.2358 40.3943 85.8378 36.9962 85.8378 32.8204C85.8378 28.6445 89.2358 25.2465 93.4117 25.2465C97.5875 25.2465 100.986 28.6445 100.986 32.8204C100.986 36.9962 97.5873 40.3943 93.4117 40.3943Z" fill="white"/>
<path d="M23.0806 20.1973C16.1176 20.1973 10.4575 25.8625 10.4575 32.8204C10.4575 39.7782 16.1228 45.4435 23.0806 45.4435C30.0384 45.4435 35.7037 39.7782 35.7037 32.8204C35.7037 25.8625 30.0434 20.1973 23.0806 20.1973ZM23.0806 40.3943C18.9048 40.3943 15.5067 36.9962 15.5067 32.8204C15.5067 28.6445 18.9048 25.2465 23.0806 25.2465C27.2565 25.2465 30.6545 28.6445 30.6545 32.8204C30.6545 36.9962 27.2562 40.3943 23.0806 40.3943Z" fill="white"/>
<path d="M58.0664 40.3945C39.9698 40.3945 25.2461 55.1182 25.2461 73.2148C25.2461 74.6084 26.3772 75.7396 27.7708 75.7396C29.1644 75.7396 30.2955 74.6084 30.2955 73.2148C30.2955 57.9004 42.752 45.444 58.0664 45.444C73.3809 45.444 85.8373 57.9004 85.8373 73.2148C85.8373 74.6084 86.9685 75.7396 88.3621 75.7396C89.7557 75.7396 90.8868 74.6084 90.8868 73.2148C90.8868 55.1182 76.1631 40.3945 58.0664 40.3945Z" fill="white"/>
<path d="M93.4118 50.4927C89.2563 50.4927 85.1865 51.6288 81.6419 53.7748C80.4554 54.5019 80.0715 56.0519 80.7937 57.2436C81.5257 58.4353 83.0708 58.814 84.2625 58.0919C87.0142 56.4204 90.1751 55.5419 93.4118 55.5419C103.157 55.5419 111.084 63.4691 111.084 73.2144C111.084 74.608 112.215 75.7391 113.609 75.7391C115.003 75.7391 116.134 74.608 116.134 73.2144C116.134 60.6872 105.939 50.4927 93.4118 50.4927Z" fill="white"/>
<path d="M34.4866 53.7696C30.947 51.6288 26.8774 50.4927 22.7217 50.4927C10.1945 50.4927 0 60.6872 0 73.2144C0 74.608 1.13112 75.7391 2.52471 75.7391C3.91831 75.7391 5.04943 74.608 5.04943 73.2144C5.04919 63.4691 12.9767 55.5419 22.7217 55.5419C25.9584 55.5419 29.1191 56.4204 31.866 58.0867C33.0525 58.8088 34.6078 58.4301 35.3349 57.2384C36.062 56.0467 35.6781 54.4967 34.4866 53.7696Z" fill="white"/>
</svg>
